<svg xmlns="http://www.w3.org/2000/svg" width="560" height="185" viewBox="0 0 560 185" fill="none" role="img" aria-labelledby="title desc">
<title id="title">19 / Philosopher</title><desc id="desc">Big questions. Clear, thoughtful perspectives. reflective / balanced. Open the full system prompt.</desc>
<defs><linearGradient id="tint" x1="0" y1="0" x2="560" y2="185" gradientUnits="userSpaceOnUse"><stop stop-color="#E9CB88" stop-opacity=".10"/><stop offset="1" stop-color="#E9CB88" stop-opacity=".015"/></linearGradient></defs>
<rect x="1" y="1" width="558" height="183" rx="18" fill="#101525" stroke="#30384D"/>
<rect x="1" y="1" width="558" height="183" rx="18" fill="url(#tint)"/>
<rect x="24" y="25" width="44" height="44" rx="13" fill="#E9CB88" fill-opacity=".09" stroke="#E9CB88" stroke-opacity=".25"/>
<path d="M24 121H536" stroke="#3A4156" stroke-opacity=".7"/>
<g transform="translate(34 35) scale(1.0)" stroke="#E9CB88" stroke-width="1.65" stroke-linecap="round" stroke-linejoin="round" fill="none"><path d="M20 10c0 5-4 8-9 8H6l-4 4v-9C0 5 7 1 13 2c4 0 7 3 7 8Z"/><path d="M6 8h9M6 12h6"/></g><text x="84" y="55" fill="#F2F2FB" font-family="DejaVu Sans, Arial, sans-serif" font-size="22" font-weight="600" letter-spacing="-0.4">Philosopher</text><text x="512" y="34" fill="#E9CB88" font-family="DejaVu Sans Mono, monospace" font-size="12" font-weight="500" letter-spacing="1">19</text><text x="25" y="100" fill="#B7C1D6" font-family="DejaVu Sans, Arial, sans-serif" font-size="15" font-weight="400">Big questions. Clear, thoughtful perspectives.</text><text x="25" y="155" fill="#E9CB88" font-family="DejaVu Sans, Arial, sans-serif" font-size="10.5" font-weight="500" letter-spacing="0.65">REFLECTIVE / BALANCED</text><text x="419" y="155" fill="#D3DBED" font-family="DejaVu Sans, Arial, sans-serif" font-size="10" font-weight="500" letter-spacing="0.7">OPEN PROMPT</text><path d="M518 151h14m-5-5 5 5-5 5" stroke="#D3DBED" stroke-width="1.4" stroke-linecap="round" stroke-linejoin="round"/>
</svg>
